<svg width="124" height="124" viewBox="0 0 124 124" fill="none" xmlns="http://www.w3.org/2000/svg">
<rect x="2" y="2" width="120" height="120" rx="60" stroke="#EC1C25" stroke-width="4" stroke-linecap="round" stroke-dasharray="16 16"/>
<path d="M80.3664 68.185C80.865 66.9431 81.4601 65.6555 82.0903 64.2924C85.7584 56.3573 90.3234 46.4818 77.6635 38.8175C74.6584 36.9982 70.7479 35.7251 66.6526 35.2325C62.3943 34.7205 58.2775 35.0577 54.7477 36.2081C48.3855 38.28 43.705 42.1693 41.9063 46.8791C40.5617 50.3997 40.9118 54.1496 42.9149 57.7513C42.2732 58.6916 41.6069 59.556 40.9601 60.3951C39.1602 62.73 37.606 64.7465 38.0892 66.7685C38.377 67.9727 39.3332 69.0079 41.0746 69.9854C40.4542 70.7277 39.9755 71.554 40.0634 72.4212C40.1493 73.2692 40.7327 73.9132 41.4031 74.4368C41.0322 75.2022 40.7838 76.0733 41.153 76.848C41.4966 77.5688 42.24 77.9402 42.9689 78.1503C42.1738 80.7084 42.4339 82.5204 43.7462 83.5427C46.4688 85.6635 52.6401 83.1976 54.928 81.9485C56.5527 83.9307 57.1212 86.219 57.56 88.4053C57.6293 88.7509 57.9358 89 58.2919 89H81.9357C82.1904 89 82.4273 88.8714 82.5645 88.6593C82.7015 88.4469 82.7198 88.1801 82.6128 87.9514C78.8213 79.8474 78.1284 73.7514 80.3664 68.185ZM58.9014 87.5229C58.4501 85.3996 57.8117 83.2079 56.2422 81.2111C59.0335 79.6787 62.0447 77.7755 64.1571 74.8794L62.9469 74.0152C60.8143 76.9393 57.7177 78.7468 54.7285 80.3477L54.73 80.3503C54.7095 80.3613 54.6884 80.3704 54.6688 80.3833C53.9182 80.8804 51.8913 81.8415 49.7355 82.4225C47.3328 83.0698 45.5338 83.0556 44.6697 82.3822C43.5749 81.5294 44.0503 79.4551 44.642 77.8652C44.7186 77.6595 44.6987 77.4307 44.5879 77.2408C44.4771 77.0509 44.2867 76.9196 44.0684 76.8824C42.8418 76.6735 42.5651 76.3483 42.5031 76.2181C42.4135 76.0302 42.4293 75.594 43.0126 74.5834C43.2053 74.2495 43.1068 73.8251 42.7861 73.6079C41.9896 73.0684 41.5848 72.632 41.5486 72.2738C41.5053 71.8469 41.9177 71.1978 42.8092 70.2894C42.9758 70.1197 43.0502 69.8812 43.0091 69.6481C42.9679 69.4151 42.8165 69.2155 42.6017 69.1116C40.7614 68.2215 39.7606 67.3437 39.5418 66.4288C39.221 65.0866 40.5122 63.4116 42.1469 61.2908C42.8597 60.3658 43.6679 59.3175 44.4153 58.1854C44.5701 57.9509 44.5775 57.6499 44.4344 57.4082C42.4639 54.0821 42.0725 50.6217 43.3025 47.4013C44.941 43.111 49.2827 39.5425 55.2145 37.611C61.8424 35.4507 70.956 36.4881 76.8846 40.0773C82.0352 43.1953 84.5292 46.9258 84.5088 51.4817C84.4908 55.5492 82.5805 59.6817 80.7331 63.6782C80.0948 65.0588 79.4919 66.3631 78.9795 67.6395C77.6805 70.8707 77.3135 74.2763 77.8575 78.051C78.2722 80.9275 79.2304 84.0356 80.7802 87.5229H58.9014ZM78.1478 62.4469C79.4438 61.2809 80.268 59.7227 80.4933 58.0041C81.2282 56.8608 81.6155 55.5393 81.6155 54.1703C81.6155 52.53 81.0529 50.9535 80.0223 49.6821C80.2556 49.0169 80.3738 48.3223 80.3738 47.6114C80.3738 44.1252 77.506 41.2888 73.981 41.2888C72.8721 41.2888 71.7931 41.5704 70.8339 42.1068C70.2168 41.7996 69.5458 41.5919 68.8577 41.4955C67.4991 39.3714 64.721 38.0184 61.6516 38.0184C59.5069 38.0184 57.4466 38.69 55.9425 39.8703C55.918 39.8686 55.8941 39.8679 55.8698 39.8664C55.8425 39.8647 55.8151 39.8632 55.7877 39.862C55.6867 39.8572 55.5861 39.854 55.4855 39.854C51.9622 39.854 49.0957 42.6917 49.0957 46.1795C49.0957 46.2848 49.0992 46.3894 49.1044 46.4938C49.1051 46.5089 49.1057 46.5238 49.1066 46.5388C49.1126 46.6444 49.1212 46.7495 49.1324 46.8542C49.1329 46.859 49.1335 46.8638 49.1341 46.8686C49.1686 47.1841 49.2263 47.4953 49.3083 47.8005C47.5829 48.9716 46.5339 50.9174 46.5339 53.0132C46.5339 56.501 49.4005 59.3387 52.9237 59.3387C52.9724 59.3387 53.0216 59.3381 53.0718 59.3367C53.3977 59.8934 53.8056 60.391 54.2751 60.818C54.3059 60.8462 54.3373 60.8738 54.3686 60.9014C54.3937 60.9235 54.4193 60.9452 54.4448 60.9668C55.3543 61.7417 56.4854 62.2678 57.7303 62.4375C57.7672 62.4427 57.8042 62.447 57.8413 62.4516C57.8989 62.4584 57.9566 62.4651 58.0147 62.4703C58.0877 62.4772 58.161 62.4827 58.2346 62.4869C58.2638 62.4886 58.293 62.4901 58.3223 62.4913C58.4168 62.4956 58.5115 62.4985 58.6065 62.4985C60.0965 62.4985 61.5091 61.9964 62.6493 61.0729C63.9008 61.9629 65.4127 62.446 66.9632 62.4461V62.4477C66.9754 62.4477 66.9875 62.4468 66.9996 62.4467C67.0156 62.4467 67.0317 62.4457 67.0477 62.4456C67.4022 62.4416 67.7511 62.4143 68.0921 62.3624C68.9319 63.1462 69.9398 63.7231 71.0408 64.049C71.7163 65.1446 72.1054 66.4668 72.1417 67.8032C72.1648 68.6649 72.6843 69.3962 73.4994 69.7124C73.7586 69.812 74.0247 69.8606 74.287 69.8606C74.8466 69.8606 75.3881 69.6392 75.803 69.2193C77.316 67.6816 78.1838 65.5021 78.1838 63.2397C78.1835 62.984 78.1716 62.7185 78.1478 62.4469ZM76.8935 61.5675C76.694 61.7282 76.5924 61.9792 76.6243 62.2318C76.6693 62.5869 76.6911 62.9166 76.6911 63.2401C76.6911 65.1212 75.9776 66.9252 74.7347 68.1886C74.5458 68.3798 74.2928 68.4335 74.042 68.3372C73.7895 68.2392 73.6406 68.0305 73.6335 67.7642C73.5872 66.0601 73.0558 64.3696 72.137 63.0042C72.0347 62.8522 71.8791 62.7431 71.7001 62.698C71.0354 62.5303 70.4089 62.2489 69.8454 61.8688C72.3314 60.8233 74.1222 58.4677 74.3328 55.6832C75.2097 55.4191 76.0426 54.9654 76.7643 54.316L75.7601 53.2236C73.7618 55.022 70.6566 54.8776 68.838 52.9018L67.7345 53.8963C68.9939 55.2645 70.7262 55.9594 72.4645 55.9594C72.5778 55.9594 72.6911 55.9555 72.8043 55.9496C72.4588 58.3812 70.5948 60.3362 68.1941 60.8425C68.1915 60.843 68.1891 60.8431 68.1865 60.8436C67.8453 60.9147 67.5021 60.9552 67.1607 60.9663L67.1554 60.9664C65.7021 61.0124 64.2797 60.5247 63.1699 59.6022C62.1073 58.7207 61.4001 57.4983 61.1583 56.1631C62.2346 56.1481 63.2946 55.8622 64.2517 55.3149L63.505 54.0362C62.3731 54.6835 61.0537 54.8551 59.7895 54.5196C58.5255 54.184 57.469 53.3821 56.8145 52.2614L55.5222 53.0002C56.3759 54.4622 57.7541 55.5083 59.4029 55.9459C59.4772 55.9656 59.5517 55.9838 59.6262 56.0008C59.8096 57.5225 60.4736 58.9484 61.5167 60.074C60.6775 60.6893 59.6675 61.0222 58.6063 61.0222C58.5329 61.0222 58.4599 61.0199 58.3872 61.0167C58.3617 61.0155 58.3362 61.0142 58.3109 61.0126C58.2648 61.0098 58.2191 61.0061 58.1734 61.0022C58.0291 60.9894 57.8858 60.9708 57.7444 60.9455C57.741 60.9449 57.7376 60.9442 57.7341 60.9436C56.9436 60.8003 56.2035 60.4658 55.5788 59.9804C55.5749 59.9774 55.571 59.9744 55.5672 59.9714C55.5276 59.9405 55.4887 59.9089 55.4502 59.8769C55.4262 59.8569 55.4025 59.8363 55.379 59.8157C55.3513 59.7918 55.3235 59.7678 55.2965 59.7433C55.2481 59.6993 55.2004 59.6545 55.1539 59.6086C55.1473 59.6022 55.1409 59.5956 55.1344 59.5892C54.254 58.7121 53.7091 57.5046 53.7091 56.1733H52.2165C52.2165 56.7496 52.2963 57.3077 52.4429 57.8387C49.9672 57.5988 48.0263 55.5266 48.0263 53.0135C48.0263 51.5198 48.7235 50.1275 49.8843 49.2177C50.1761 49.7441 50.5438 50.2307 50.9811 50.6605C50.8538 51.7204 51.1564 52.7835 51.8603 53.704L53.0504 52.813C52.4986 52.0915 52.3182 51.2867 52.5283 50.4859C52.787 49.4996 53.6234 48.6339 54.8227 48.1109L54.221 46.7595C53.0266 47.2803 52.0927 48.0826 51.5337 49.0396C51.2362 48.6376 51.0034 48.1934 50.8436 47.7227C50.8414 47.7166 50.8392 47.7106 50.8371 47.7045C50.7568 47.4649 50.6954 47.2186 50.6536 46.9677C50.6522 46.9596 50.6511 46.9514 50.6498 46.9433C50.6383 46.8721 50.6287 46.8005 50.6205 46.7286C50.6186 46.712 50.6165 46.6954 50.6148 46.6788C50.6081 46.6138 50.603 46.5485 50.5988 46.4831C50.5977 46.4639 50.596 46.4449 50.595 46.4257C50.5907 46.3439 50.5883 46.262 50.5883 46.1796C50.5883 43.5059 52.7851 41.3308 55.4855 41.3308C55.5792 41.3308 55.6733 41.334 55.7686 41.3395C55.8 41.3413 55.8311 41.3445 55.8624 41.347C55.9216 41.3514 55.9811 41.3564 56.042 41.363C57.2408 41.4986 58.3553 42.0681 59.1613 42.973L60.281 41.9965C59.6336 41.2698 58.833 40.7105 57.949 40.3451C59.0312 39.797 60.3176 39.4954 61.6517 39.4954C63.8035 39.4954 65.7638 40.2603 66.9811 41.5123C64.7716 41.8551 62.8798 43.3312 62.0392 45.3901C60.6292 45.1585 59.1331 45.3894 57.8013 46.1499L58.5474 47.4289C60.888 46.0923 63.8908 46.8882 65.2412 49.2032L66.5339 48.465C65.8105 47.2249 64.7235 46.3198 63.4825 45.8032C64.2542 44.0722 66.0094 42.9122 67.9661 42.9122C68.1407 42.9122 68.3175 42.9218 68.4942 42.9405C68.4998 42.9412 68.5055 42.9417 68.5111 42.9423C68.5686 42.9487 68.6259 42.9558 68.6832 42.9641C69.3156 43.0571 69.9277 43.271 70.4705 43.5931C70.4727 43.5944 70.4751 43.5952 70.4772 43.5965C71.6605 44.2959 72.4898 45.4464 72.7668 46.7877L74.229 46.4921C73.9533 45.1572 73.2574 43.9686 72.2588 43.0742C72.8062 42.8711 73.388 42.7656 73.9813 42.7656C76.6834 42.7656 78.8816 44.9393 78.8816 47.6113C78.8816 47.9107 78.8528 48.2059 78.7986 48.496C78.1987 48.0379 77.529 47.6736 76.8155 47.4212L76.3132 48.812C77.2191 49.1322 78.0364 49.681 78.68 50.3987C79.6107 51.4416 80.1233 52.7765 80.1233 54.1702C80.1233 55.3063 79.788 56.4002 79.1537 57.3334C79.0856 57.4335 79.0434 57.5486 79.0307 57.6686C78.8681 59.2029 78.1091 60.5876 76.8935 61.5675Z" fill="white"/>
</svg>
