<svg width="25" height="15" viewBox="0 0 25 15" fill="none" xmlns="http://www.w3.org/2000/svg">
<path d="M24.8679 7.19177L16.8292 0.100514C16.7712 0.0492881 16.6998 0.0159425 16.6236 0.00445343C16.5473 -0.00703564 16.4694 0.00381675 16.3991 0.0357166C16.3287 0.0685345 16.2692 0.121174 16.2279 0.187286C16.1865 0.253397 16.165 0.330155 16.166 0.408301V3.64817L0.401939 7.09053C0.295338 7.09053 0.193103 7.13319 0.117725 7.20914C0.0423471 7.28509 0 7.3881 0 7.49551C0 7.60292 0.0423471 7.70593 0.117725 7.78188C0.193103 7.85782 0.295338 7.90049 0.401939 7.90049L16.1619 11.355V14.5949C16.161 14.673 16.1825 14.7498 16.2238 14.8159C16.2652 14.882 16.3247 14.9346 16.3951 14.9675C16.4484 14.9904 16.506 15.0014 16.5639 14.9999C16.6597 14.9999 16.7523 14.9654 16.8251 14.9027L24.8639 7.8114C24.9067 7.77339 24.9409 7.72665 24.9644 7.67428C24.9879 7.62191 25 7.56512 25 7.50766C25 7.4502 24.9879 7.3934 24.9644 7.34103C24.9409 7.28866 24.9067 7.24192 24.8639 7.20392L24.8679 7.19177Z" fill="#EC1C25"/>
</svg>
